<?xml version="1.0" encoding="UTF-8"?>
<svg width="43px" height="14px" viewBox="0 0 43 14" version="1.1" xmlns="http://www.w3.org/2000/svg" xmlns:xlink="http://www.w3.org/1999/xlink">
    <!-- Generator: Sketch 51.2 (57519) - http://www.bohemiancoding.com/sketch -->
    <title>if_american_express_183873</title>
    <desc>Created with Sketch.</desc>
    <defs></defs>
    <g id="Page-1" stroke="none" stroke-width="1" fill="none" fill-rule="evenodd">
        <g id="Artboard" transform="translate(-482.000000, -196.000000)" fill="#000000">
            <g id="if_american_express_183873" transform="translate(482.000000, 196.000000)">
                <g id="Shape">
                    <path d="M43,12.3821759 C43,13.4847639 42.3196701,13.9982623 41.0999796,13.9982623 L38.7709224,13.9982623 L38.7709224,12.8948054 L41.0999796,12.8948054 C41.3153737,12.8948054 41.4939931,12.859182 41.5666667,12.7853286 C41.6384647,12.7114752 41.7093871,12.6011295 41.7093871,12.4542916 C41.7093871,12.3065847 41.6384647,12.1606157 41.5666667,12.0876311 C41.4939931,12.0137777 41.3512727,11.9772854 41.1358786,11.9772854 C40.0247607,11.9399243 38.6273264,12.0137777 38.6273264,10.3968224 C38.6273264,9.66176379 39.0940134,8.8537206 40.3478518,8.8537206 L42.748707,8.8537206 L42.748707,9.95630857 L40.5264712,9.95630857 C40.3119528,9.95630857 40.1674812,9.95630857 40.0606597,10.030162 C39.9538383,10.1396388 39.8820403,10.2499845 39.8820403,10.4350524 C39.8820403,10.6183827 39.9897373,10.7287284 40.1315822,10.8017129 C40.2751782,10.839074 40.4187742,10.8755663 40.5982692,10.8755663 L41.2427001,10.8755663 C41.9230299,10.8755663 42.353818,11.0224043 42.6401344,11.2804568 C42.856404,11.5376404 43,11.8686775 43,12.3821759 Z M37.9469965,11.2804568 C37.6606801,11.0224043 37.2298921,10.8755663 36.5486866,10.8755663 L35.9042558,10.8755663 C35.7247607,10.8755663 35.5811647,10.839074 35.4393199,10.8017129 C35.2957239,10.7287284 35.1880269,10.6183827 35.1880269,10.4350524 C35.1880269,10.2499845 35.2239259,10.1396388 35.3675219,10.030162 C35.4743433,9.95630857 35.6170637,9.95630857 35.8324577,9.95630857 L38.053818,9.95630857 L38.053818,8.8537206 L35.6529627,8.8537206 C34.3632254,8.8537206 33.9324374,9.66263266 33.9324374,10.3968224 C33.9324374,12.0137777 35.3316229,11.9399243 36.4409896,11.9772854 C36.6563836,11.9772854 36.7999796,12.0137777 36.8717776,12.0876311 C36.9427001,12.1606157 37.0153737,12.3065847 37.0153737,12.4542916 C37.0153737,12.6011295 36.9427001,12.7114752 36.8717776,12.7853286 C36.7640806,12.859182 36.6204846,12.8948054 36.4059662,12.8948054 L34.076909,12.8948054 L34.076909,13.9982623 L36.4059662,13.9982623 C37.6239055,13.9982623 38.305111,13.483895 38.305111,12.3821759 C38.305111,11.8686775 38.161515,11.5376404 37.9469965,11.2804568 Z M33.3598045,12.9330354 L30.5299124,12.9330354 L30.5299124,11.9043009 L33.2880065,11.9043009 L33.2880065,10.8746974 L30.5299124,10.8746974 L30.5299124,9.91894743 L33.3598045,9.91894743 L33.3598045,8.85285173 L29.3478721,8.85285173 L29.3478721,13.9973934 L33.3598045,13.9973934 L33.3598045,12.9330354 Z M28.0563836,9.11264197 C27.6632458,8.89108174 27.1974343,8.85458946 26.5871513,8.85458946 L23.8290572,8.85458946 L23.8290572,13.9991311 L25.0469965,13.9991311 L25.0469965,12.1249922 L26.338485,12.1249922 C26.7675219,12.1249922 27.0188149,12.1623534 27.1974343,12.3456836 C27.4119528,12.6028673 27.4119528,13.04425 27.4119528,13.375287 L27.4119528,14 L28.5939931,14 L28.5939931,13.0068888 C28.5939931,12.5298827 28.5589697,12.3083225 28.4162492,12.0520077 C28.3085522,11.9051697 28.0931582,11.7209706 27.8077174,11.610625 C28.1290572,11.5002793 28.6666667,11.0597654 28.6666667,10.2508533 C28.6666667,9.66263266 28.4512727,9.33246447 28.0563836,9.11264197 Z M21.2495826,8.85458946 L17.415394,8.85458946 L15.8743637,10.5453981 L14.4051313,8.85458946 L9.56752189,8.85458946 L9.56752189,13.9991311 L14.3333333,13.9991311 L15.8743637,12.3083225 L17.343596,13.9991311 L19.6726532,13.9991311 L19.6726532,12.2726991 L21.1777846,12.2726991 C22.2171045,12.2726991 23.2555488,11.9790231 23.2555488,10.546267 C23.2555488,9.14913424 22.1803299,8.85458946 21.2495826,8.85458946 Z M27.0897373,10.985912 C26.9111179,11.0597654 26.7316229,11.0597654 26.5162289,11.0597654 L25.0469965,11.0962577 L25.0469965,9.9198163 L26.5162289,9.9198163 C26.7316229,9.9198163 26.9452657,9.9198163 27.0897373,10.030162 C27.2324577,10.1040154 27.3401548,10.2499845 27.3401548,10.4706759 C27.3401548,10.6913672 27.2324577,10.8755663 27.0897373,10.985912 Z M21.2495826,11.2430956 L19.6726532,11.2430956 L19.6726532,9.92068516 L21.2495826,9.92068516 C21.679495,9.92068516 21.9649359,10.1048843 21.9649359,10.546267 C21.9649359,10.985912 21.679495,11.2430956 21.2495826,11.2430956 Z M16.6273671,11.4264259 L18.4906129,9.40631788 L18.4906129,13.5577484 L16.6273671,11.4264259 Z M13.7239259,12.9330354 L10.7504378,12.9330354 L10.7504378,11.9043009 L13.4017104,11.9043009 L13.4017104,10.8746974 L10.7504378,10.8746974 L10.7504378,9.91894743 L13.7607005,9.91894743 L15.0863368,11.4246881 L13.7239259,12.9330354 Z M39.6666463,5.14367281 L37.9469965,5.14367281 L35.6888617,1.2859182 L35.6888617,5.14367281 L33.2521075,5.14367281 L32.7871717,4.0037237 L30.2786194,4.0037237 L29.8136836,5.14367281 L28.4162492,5.14367281 C27.8427408,5.14367281 27.0897373,4.99596599 26.6598249,4.55458326 C26.266687,4.11406938 26.051293,3.52584869 26.051293,2.60832868 C26.051293,1.83590889 26.15899,1.13908025 26.6957239,0.587351828 C27.0538383,0.18333023 27.6991448,0 28.5230707,0 L29.6700876,0 L29.6700876,1.10171911 L28.5230707,1.10171911 C28.0931582,1.10171911 27.8427408,1.17557252 27.5923234,1.39626389 C27.3769293,1.61695525 27.2692323,2.02097685 27.2692323,2.57183641 C27.2692323,3.12356482 27.3769293,3.52758642 27.5923234,3.78477006 C27.7718184,3.96810029 28.0931582,4.0419537 28.4162492,4.0419537 L28.9529831,4.0419537 L30.6735085,0.00086886365 L32.4649562,0.00086886365 L34.471798,4.85086576 L34.471798,0.00086886365 L36.3350438,0.00086886365 L38.4495826,3.56494756 L38.4495826,0.00086886365 L39.6675219,0.00086886365 L39.6675219,5.14367281 L39.6666463,5.14367281 Z M25.4418856,0 L24.2221951,0 L24.2221951,5.14367281 L25.4418856,5.14367281 L25.4418856,0 Z M22.8974343,0.220691367 C22.5034209,0 22.074384,0 21.464101,0 L18.7060069,0 L18.7060069,5.14367281 L19.8880472,5.14367281 L19.8880472,3.26953392 L21.1786602,3.26953392 C21.6085726,3.26953392 21.894889,3.30602619 22.074384,3.49022528 C22.2889025,3.74740892 22.2530035,4.18879166 22.2530035,4.48246757 L22.2530035,5.14454167 L23.4709428,5.14454167 L23.4709428,4.11493825 C23.4709428,3.67442438 23.4350438,3.45373301 23.2564244,3.19568051 C23.1496029,3.04884255 22.9342089,2.86551232 22.6829159,2.75516664 C23.0060069,2.60832868 23.5427408,2.20343822 23.5427408,1.39626389 C23.5418652,0.808043195 23.2914478,0.477006144 22.8974343,0.220691367 Z M17.8453065,4.07844598 L15.0504378,4.07844598 L15.0504378,3.04884255 L17.8094075,3.04884255 L17.8094075,1.98274685 L15.0504378,1.98274685 L15.0504378,1.06522684 L17.8453065,1.06522684 L17.8453065,3.55271368e-15 L13.8316229,3.55271368e-15 L13.8316229,5.14367281 L17.8453065,5.14367281 L17.8453065,4.07844598 Z M12.935899,0 L10.9649562,0 L9.49572389,3.49022528 L7.91879454,0 L5.98375076,0 L5.98375076,4.8499969 L3.94188556,0 L2.15043779,0 L0,5.14367281 L1.29061291,5.14367281 L1.75642435,4.0037237 L4.264101,4.0037237 L4.72991244,5.14367281 L7.16666667,5.14367281 L7.16666667,1.10171911 L8.92221543,5.14367281 L9.96153533,5.14367281 L11.7170841,1.10171911 L11.7170841,5.14367281 L12.935899,5.14367281 L12.935899,0 Z M32.3572592,2.90200459 L31.5333333,0.881027742 L30.7094075,2.90200459 L32.3572592,2.90200459 Z M21.9649359,2.0939614 C21.787192,2.20343822 21.607697,2.20343822 21.3572796,2.20343822 L19.8871717,2.20343822 L19.8871717,1.06522684 L21.3572796,1.06522684 C21.571798,1.06522684 21.8222154,1.06522684 21.9649359,1.13908025 C22.1085319,1.24942593 22.1803299,1.39626389 22.1803299,1.61695525 C22.1803299,1.83677776 22.1085319,2.02097685 21.9649359,2.0939614 Z M2.18633679,2.90200459 L3.00938709,0.881027742 L3.83331297,2.90200459 L2.18633679,2.90200459 Z"></path>
                </g>
            </g>
        </g>
    </g>
</svg>