<svg width="435.97" height="173.13" xmlns="http://www.w3.org/2000/svg" class="main-header__logo-image">

 <g>
  <title>background</title>
  <rect fill="none" id="canvas_background" height="9.138" width="39.605" y="-1" x="-1"/>
 </g>
 <g>
  <title>Layer 1</title>
  <path d="m206.2,84.58l0,50.75l-16.1,0l0,-125.33l42.7,0a38.61,38.61 0 0 1 27.65,10.85a34.88,34.88 0 0 1 11.55,26.45a34.72,34.72 0 0 1 -11.55,26.6q-11.2,10.68 -27.65,10.67l-26.6,0l0,0.01zm0,-59.16l0,43.76l27,0a21.28,21.28 0 0 0 15.93,-6.48a21.36,21.36 0 0 0 0,-30.63a21,21 0 0 0 -15.93,-6.65l-27,0z" fill="#000000" id="svg_1"/>
  <path d="m309.1,46.78q17.85,0 28.18,9.54t10.32,26.16l0,52.85l-15.4,0l0,-11.9l-0.7,0q-10,14.7 -26.6,14.7q-14.17,0 -23.71,-8.4a26.82,26.82 0 0 1 -9.54,-21q0,-13.31 10.06,-21.17t26.86,-7.88q14.34,0 23.62,5.25l0,-3.68a18.33,18.33 0 0 0 -6.65,-14.25a22.8,22.8 0 0 0 -15.54,-5.87q-13.49,0 -21.35,11.38l-14.18,-8.93q11.7,-16.8 34.63,-16.8zm-20.83,62.3a12.86,12.86 0 0 0 5.34,10.5a19.64,19.64 0 0 0 12.51,4.2a25.67,25.67 0 0 0 18.11,-7.52q8,-7.53 8,-17.67q-7.53,-6 -21,-6q-9.81,0 -16.36,4.73c-4.41,3.2 -6.6,7.09 -6.6,11.76z" fill="#000000" id="svg_2"/>
  <path d="m436,49.58l-53.76,123.55l-16.62,0l19.95,-43.23l-35.35,-80.32l17.5,0l25.55,61.6l0.35,0l24.85,-61.6l17.53,0z" fill="#000000" id="svg_3"/>
  <path d="m141.14,73.64a85.79,85.79 0 0 0 -1.24,-14.64l-67.9,0l0,27.73l38.89,0a33.33,33.33 0 0 1 -14.38,21.88l0,18l23.21,0c13.59,-12.53 21.42,-31.06 21.42,-52.97z" fill="#000000" id="svg_4"/>
  <path d="m72,144c19.43,0 35.79,-6.38 47.72,-17.38l-23.21,-18c-6.46,4.38 -14.78,6.88 -24.51,6.88c-18.78,0 -34.72,-12.66 -40.42,-29.72l-23.91,0l0,18.55a72,72 0 0 0 64.33,39.67z" fill="#000000" id="svg_5"/>
  <path d="m31.58,85.78a43.14,43.14 0 0 1 0,-27.56l0,-18.55l-23.91,0a72,72 0 0 0 0,64.66l23.91,-18.55z" fill="#000000" id="svg_6"/>
  <path d="m72,28.5a39.09,39.09 0 0 1 27.62,10.8l0,0l20.55,-20.55a69.18,69.18 0 0 0 -48.17,-18.75a72,72 0 0 0 -64.33,39.67l23.91,18.55c5.7,-17.06 21.64,-29.72 40.42,-29.72z" fill="#000000" id="svg_7"/>
 </g>
</svg>
