<?xml version="1.0" encoding="utf-8"?>
<!-- Generator: Adobe Illustrator 24.2.1, SVG Export Plug-In . SVG Version: 6.00 Build 0)  -->
<svg version="1.1" id="Capa_1" xmlns="http://www.w3.org/2000/svg" xmlns:xlink="http://www.w3.org/1999/xlink" x="0px" y="0px"
	 viewBox="0 0 512 512" style="enable-background:new 0 0 512 512;" xml:space="preserve">
<style type="text/css">
	.st0{fill:#F9EDE0;}
</style>
<g>
	<path class="st0" d="M337.5,498.7c-2.7,0.9-5.3,1.8-8.1,2.6C332.2,500.4,334.8,499.6,337.5,498.7z"/>
	<path class="st0" d="M350.9,493.8c-2.9,1.1-5.8,2.3-8.7,3.3C345.1,496,348,494.9,350.9,493.8z"/>
</g>
<g>
	<path class="st0" d="M324.3,502.7c-2.6,0.7-5.2,1.4-7.9,2.1C319.1,504.1,321.7,503.4,324.3,502.7z"/>
	<path class="st0" d="M237.5,511.3c-3.1-0.2-6.2-0.5-9.3-0.8C231.2,510.8,234.3,511,237.5,511.3z"/>
	<path class="st0" d="M195.6,504.8c-2.6-0.6-5.3-1.3-7.9-2.1C190.3,503.4,192.9,504.1,195.6,504.8z"/>
	<path class="st0" d="M222.8,509.8c-2.8-0.4-5.6-0.7-8.4-1.2C217.2,509.1,220,509.4,222.8,509.8z"/>
	<path class="st0" d="M256,512c-4.7,0-9.4-0.2-14-0.4C246.6,511.8,251.3,512,256,512z"/>
	<path class="st0" d="M209,507.6c-2.7-0.5-5.4-1-8-1.6C203.7,506.6,206.3,507.1,209,507.6z"/>
	<path class="st0" d="M157.4,492.3c-4-1.7-7.9-3.4-11.8-5.3C149.5,488.9,153.4,490.6,157.4,492.3z"/>
	<path class="st0" d="M169.8,497.1c-2.9-1.1-5.8-2.2-8.7-3.3C164,494.9,166.9,496,169.8,497.1z"/>
	<path class="st0" d="M270,511.6c-4.7,0.2-9.3,0.4-14,0.4C260.7,512,265.4,511.8,270,511.6z"/>
	<path class="st0" d="M283.9,510.5c-3.1,0.3-6.2,0.6-9.3,0.8C277.7,511,280.8,510.8,283.9,510.5z"/>
	<path class="st0" d="M311,506c-2.7,0.6-5.3,1.1-8,1.6C305.7,507.1,308.3,506.6,311,506z"/>
	<path class="st0" d="M297.5,508.6c-2.8,0.5-5.6,0.8-8.4,1.2C292,509.4,294.8,509.1,297.5,508.6z"/>
	<path class="st0" d="M366.4,487c-3.9,1.8-7.8,3.6-11.7,5.3C358.6,490.6,362.5,488.9,366.4,487z"/>
	<path class="st0" d="M182.5,501.2c-2.7-0.8-5.4-1.7-8.1-2.6C177.2,499.6,179.8,500.4,182.5,501.2z"/>
	<path class="st0" d="M354.6,492.3c-1.2,0.5-2.5,1-3.7,1.5C352.1,493.3,353.4,492.8,354.6,492.3z"/>
	<path class="st0" d="M366.7,486.9c-0.1,0.1-0.2,0.1-0.4,0.2C366.5,487,366.6,486.9,366.7,486.9z"/>
	<path class="st0" d="M201,506c-1.8-0.4-3.6-0.8-5.4-1.2C197.4,505.2,199.2,505.6,201,506z"/>
	<path class="st0" d="M214.5,508.6c-1.8-0.3-3.6-0.6-5.5-1C210.8,508,212.6,508.3,214.5,508.6z"/>
	<path class="st0" d="M242,511.6c-1.5-0.1-3-0.2-4.5-0.3C239,511.4,240.5,511.5,242,511.6z"/>
	<path class="st0" d="M228.1,510.5c-1.8-0.2-3.5-0.4-5.3-0.7C224.6,510,226.4,510.3,228.1,510.5z"/>
	<path class="st0" d="M145.6,487c-0.1,0-0.2-0.1-0.3-0.1C145.4,486.9,145.5,487,145.6,487z"/>
	<path class="st0" d="M274.5,511.3c-1.5,0.1-3,0.3-4.5,0.3C271.5,511.5,273,511.4,274.5,511.3z"/>
	<path class="st0" d="M329.5,501.2c-1.7,0.5-3.4,1-5.2,1.5C326,502.2,327.7,501.8,329.5,501.2z"/>
	<path class="st0" d="M342.2,497.1c-1.6,0.6-3.1,1.1-4.7,1.6C339.1,498.1,340.7,497.6,342.2,497.1z"/>
	<path class="st0" d="M161.1,493.8c-1.2-0.5-2.5-1-3.7-1.5C158.6,492.8,159.9,493.3,161.1,493.8z"/>
	<path class="st0" d="M174.5,498.7c-1.6-0.5-3.1-1-4.7-1.6C171.3,497.6,172.9,498.1,174.5,498.7z"/>
	<path class="st0" d="M289.2,509.8c-1.8,0.2-3.5,0.5-5.3,0.7C285.6,510.3,287.4,510,289.2,509.8z"/>
	<path class="st0" d="M316.4,504.8c-1.8,0.4-3.6,0.8-5.4,1.2C312.8,505.6,314.6,505.2,316.4,504.8z"/>
	<path class="st0" d="M303,507.6c-1.8,0.3-3.6,0.7-5.5,1C299.4,508.3,301.2,508,303,507.6z"/>
	<path class="st0" d="M187.7,502.7c-1.7-0.5-3.5-1-5.2-1.5C184.2,501.8,186,502.2,187.7,502.7z"/>
</g>
<path d="M256,483.8c-7.3,0-14.3-2.6-19.8-7.4c-20.7-18.1-40.6-35.1-58.2-50.1l-0.1-0.1c-51.6-44-96.1-81.9-127.1-119.3
	C16.1,265.1,0,225.4,0,182.1C0,140,14.4,101.2,40.6,72.8C67.1,44.1,103.5,28.2,143,28.2c29.6,0,56.6,9.3,80.4,27.8
	c12,9.3,22.9,20.7,32.5,34c9.6-13.3,20.5-24.7,32.5-34c23.8-18.4,50.9-27.8,80.4-27.8c39.5,0,75.9,15.8,102.4,44.6
	C497.6,101.2,512,140,512,182.1c0,43.3-16.1,82.9-50.8,124.7c-31,37.4-75.5,75.4-127.1,119.3c-17.6,15-37.6,32-58.3,50.2
	C270.3,481.1,263.3,483.8,256,483.8z M143,58.2c-31.1,0-59.6,12.4-80.4,34.9c-21,22.9-32.6,54.5-32.6,89c0,36.4,13.5,69,43.9,105.6
	c29.3,35.4,73,72.6,123.5,115.6l0.1,0.1c17.7,15.1,37.7,32.1,58.5,50.3c21-18.3,41-35.3,58.7-50.4c50.5-43.1,94.1-80.2,123.5-115.6
	c30.3-36.6,43.9-69.2,43.9-105.6c0-34.5-11.6-66.1-32.7-89C428.6,70.6,400,58.2,369,58.2c-22.8,0-43.7,7.2-62.1,21.5
	c-16.4,12.7-27.9,28.8-34.6,40c-3.5,5.8-9.5,9.2-16.3,9.2s-12.8-3.5-16.3-9.2c-6.7-11.2-18.2-27.3-34.6-40
	C186.7,65.5,165.8,58.2,143,58.2z"/>
<polygon points="83.6,56.9 14.3,137.8 14.3,202.2 52.9,286.4 147.1,378.5 251.6,468.6 356,381.5 444.1,296.3 477.5,239.8 
	498.6,182.4 482.8,125.9 453.1,78.4 415.6,49.7 342,43.2 287.6,67 251.6,110.6 223.7,80.9 180.7,50.2 109.4,43.2 "/>
</svg>
