<?xml version="1.0"?>
<svg width="139" height="38" xmlns="http://www.w3.org/2000/svg">
 <!-- Created with Method Draw - http://github.com/duopixel/Method-Draw/ -->

 <g>
  <title>background</title>
  <rect fill="#fff" id="canvas_background" height="40" width="141" y="-1" x="-1"/>
  <g display="none" overflow="visible" y="0" x="0" height="100%" width="100%" id="canvasGrid">
   <rect fill="url(#gridpattern)" stroke-width="0" y="0" x="0" height="100%" width="100%"/>
  </g>
 </g>
 <g>
  <title>Layer 1</title>
  <metadata id="svg_62">image/svg+xml</metadata>
  <g id="svg_66">
   <g transform="matrix(0.744879 0 0 0.744879 0 0)" id="svg_64">
    <title>background</title>
    <rect fill="none" id="svg_61" height="40" width="181" y="5.507497" x="2.132507"/>
   </g>
   <g transform="matrix(0.744879 0 0 0.744879 0 0)" id="svg_65">
    <title>Layer 1</title>
    <g id="svg_33" stroke="null">
     <g id="svg_58" stroke="null">
      <g id="svg_59" stroke="null">
       <path id="svg_60" d="m58.105896,14.071079c-2.999054,0 -5.610809,0.382568 -9.672516,1.412169l-1.062653,6.040587l0.675385,-0.174742l1.161835,-0.292818c1.738037,-0.462858 4.349792,-0.741514 6.673492,-0.741514c3.76886,0 5.223511,0.661222 5.223511,2.432312c0,0.491179 -0.099182,0.859558 -0.292816,1.742765c-1.256287,-0.132263 -2.418121,-0.207821 -3.28714,-0.207821c-8.992432,0 -14.215942,3.820827 -14.215942,10.338438c0,4.335632 2.999023,7.325226 7.353546,7.325226c3.674438,0 6.484558,-1.034302 8.510681,-3.239899l-0.193634,2.777069l6.767914,0l0.094452,-0.727325l0.099213,-0.920959l0.193634,-1.360199l0.288086,-1.700256l1.742767,-9.530825c0.48645,-2.984892 0.580902,-3.990875 0.580902,-5.313293c0,-5.129059 -3.674408,-7.858915 -10.640717,-7.858915zm-4.056976,22.188232c-1.837189,0 -2.899841,-1.076813 -2.899841,-2.734558c0,-2.71097 2.323669,-4.080599 6.867096,-4.080599c0.580933,0 0.968201,0.014162 1.841949,0.103912c-0.198364,3.967226 -2.522034,6.711245 -5.809174,6.711245l-0.000031,0z" stroke="null"/>
      </g>
     </g>
     <g id="svg_55" stroke="null">
      <g id="svg_56" stroke="null">
       <polygon id="svg_57" points="4.13250732421875,41.49701416492462 11.481353759765625,41.49701416492462 16.317626953125,16.295564770698547 17.673095703125,41.49701416492462 25.026641845703125,41.49701416492462 36.14910888671875,16.134981274604797 31.312835693359375,41.49701416492462 39.436248779296875,41.49701416492462 45.821624755859375,8.512210965156555 32.67303466796875,8.512210965156555 23.6759033203125,28.938782811164856 23.095001220703125,8.512210965156555 10.423431396484375,8.512210965156555 " stroke="null"/>
      </g>
     </g>
     <g id="svg_52" stroke="null">
      <g id="svg_53" stroke="null">
       <path id="svg_54" d="m180.38205,39.02692c-0.004761,-0.179443 -0.099213,-0.363647 -0.193665,-0.46283c-0.193634,-0.094452 -0.387268,-0.103912 -0.48175,-0.103912l-0.774536,0l0,1.851379l0.387268,0l0,-0.722595l0.288116,0l0.292786,0.722595l0.481781,0l-0.288147,-0.802887c0.193665,-0.080292 0.288147,-0.278656 0.288147,-0.48175zm-0.580933,0.207825c-0.094482,0.037781 -0.193634,0.037781 -0.193634,0.037781l-0.292816,0l0,-0.48175l0.203064,0c0.094482,0 0.288086,0 0.288086,0.042511c0.099213,0.037781 0.099213,0.113373 0.099213,0.184204c0,0.080292 -0.009491,0.174744 -0.103912,0.217255z" stroke="null"/>
      </g>
     </g>
     <g id="svg_49" stroke="null">
      <g id="svg_50" stroke="null">
       <path id="svg_51" d="m110.251556,20.404512c1.648315,0 3.77359,0.141663 5.903625,0.391998l1.161835,-6.20117c-2.130035,-0.292847 -5.322723,-0.528992 -7.259094,-0.528992c-9.086884,0 -12.289032,4.127836 -12.284302,9.063263c0,3.38162 1.936401,5.71945 6.286194,7.476379c3.28241,1.336576 3.773621,1.733307 3.773621,2.961273c0,1.662445 -1.445221,2.418121 -4.637909,2.418121c-2.522034,0 -4.741821,-0.330597 -7.358307,-1.057953l-1.157104,6.187012l0.387299,0.070862l1.449921,0.264465c0.48172,0.094482 1.256287,0.174774 2.224457,0.240875c1.931702,0.141693 3.376892,0.221985 4.444305,0.221985c8.709015,0 12.67627,-2.82901 12.67627,-8.94519c0,-3.68387 -1.643585,-5.832796 -5.804443,-7.466919c-3.386322,-1.355471 -3.773621,-1.662477 -3.773621,-2.918764c0,-1.440489 1.350739,-2.177246 3.967255,-2.177246z" stroke="null"/>
      </g>
     </g>
     <g id="svg_46" stroke="null">
      <g id="svg_47" stroke="null">
       <path id="svg_48" d="m152.634949,14.609501c-0.391998,-0.094452 -0.684845,-0.146423 -0.684845,-0.160583c-0.288086,-0.042511 -0.580933,-0.066132 -0.873718,-0.066132c-2.616486,0 -4.548157,1.190185 -7.06076,4.359253l0.774567,-4.071136l-7.353577,0l-4.935455,26.82611l8.128143,0c2.904602,-16.402651 4.156158,-19.283632 8.024231,-19.283632c0.292816,0 0.580902,0.023621 0.96817,0.066101l0.968201,0.198364l2.914032,-7.57553c-0.675354,-0.259765 -0.774536,-0.259765 -0.868988,-0.292815z" stroke="null"/>
      </g>
     </g>
     <g id="svg_43" stroke="null">
      <g id="svg_44" stroke="null">
       <path id="svg_45" d="m128.241119,21.193209l4.160889,0l1.161804,-6.527038l-4.156128,0l1.161804,-6.158675l-8.028931,0l-3.77359,20.478529l-0.387268,2.120575l-0.486481,2.640139c-0.099182,0.850098 -0.193665,1.652985 -0.193665,2.403961c0,3.806641 2.224518,5.894165 6.385406,5.894165c1.837219,0 3.579956,-0.264496 5.804443,-0.873718l1.062653,-5.950867c-0.571442,0.174744 -1.251587,0.259735 -2.125305,0.259735c-1.931671,0 -2.81012,-0.595062 -2.81012,-1.983612c0,-0.245575 0,-0.618683 0.099182,-1.109863l2.125305,-11.193331z" stroke="null"/>
      </g>
     </g>
     <g id="svg_40" stroke="null">
      <g id="svg_41" stroke="null">
       <path id="svg_42" d="m179.607483,37.303074c-1.161865,0 -2.130035,0.93985 -2.130035,2.087524c0,1.161835 0.96817,2.101685 2.130035,2.101685c1.161804,0 2.130035,-0.93985 2.130035,-2.101685c0,-1.142944 -0.968231,-2.087524 -2.130035,-2.087524zm0,3.688599c-0.869049,0 -1.643585,-0.713165 -1.643585,-1.601074c0,-0.878448 0.774536,-1.586884 1.643585,-1.586884c0.878448,0 1.549103,0.708435 1.549103,1.586884c0,0.887909 -0.670654,1.601074 -1.549103,1.601074z" stroke="null"/>
      </g>
     </g>
     <g id="svg_37" stroke="null">
      <g id="svg_38" stroke="null">
       <path id="svg_39" d="m166.066895,13.905766c-9.672546,0 -15.95874,6.446777 -15.95874,15.944548c0,6.805727 3.669739,12.369295 12.869965,12.369295c8.312286,0 14.504028,-3.962524 15.765076,-12.879366c0.193604,-1.558561 0.193604,-1.667173 0.193604,-3.329651c0,-6.810425 -4.448975,-12.104826 -12.869904,-12.104826zm3.967224,15.203062c-0.675385,4.179781 -4.444244,6.574282 -6.187012,6.574282c-2.904602,0.056671 -4.642609,-2.394501 -4.642609,-6.03586c0,-4.307312 2.512573,-9.195526 6.673462,-9.195526c3.28717,0 4.444244,2.658997 4.444244,5.454958c0,1.161833 -0.094452,2.219786 -0.288086,3.202147z" stroke="null"/>
      </g>
     </g>
     <g id="svg_34" stroke="null">
      <g id="svg_35" stroke="null">
       <path id="svg_36" d="m94.278656,30.374575c0.684845,-2.720398 0.977661,-4.647369 0.977661,-6.63098c0,-5.946138 -4.260071,-9.738617 -10.928802,-9.738617c-8.128143,0 -14.121521,6.777342 -14.121521,15.97287c-0.0047,7.910858 4.737091,12.024506 13.828674,12.024506c2.80542,0 5.511627,-0.354218 8.222595,-1.081543l1.350739,-6.715973c-2.899841,1.180725 -5.511597,1.704987 -8.416199,1.704987c-4.642639,0 -7.06076,-1.582184 -7.06076,-4.689852c0,-0.250305 0,-0.434509 0.099213,-0.845398l16.048401,0zm-10.050354,-10.229826c2.418152,0 3.773621,1.270445 3.773621,3.447721c0,0.358948 0,0.802889 0,1.379089l-8.997131,-0.009428c0.774536,-3.117128 2.616486,-4.817383 5.223511,-4.817383z" stroke="null"/>
      </g>
     </g>
    </g>
   </g>
  </g>
 </g>
</svg>