<?xml version="1.0" encoding="UTF-8"?>
<svg width="88px" height="14px" viewBox="0 0 88 14" version="1.1" xmlns="http://www.w3.org/2000/svg" xmlns:xlink="http://www.w3.org/1999/xlink">
    <!-- Generator: Sketch 51.2 (57519) - http://www.bohemiancoding.com/sketch -->
    <title>if_mastercard_184095</title>
    <desc>Created with Sketch.</desc>
    <defs></defs>
    <g id="Page-1" stroke="none" stroke-width="1" fill="none" fill-rule="evenodd">
        <g id="Artboard" transform="translate(-308.000000, -196.000000)" fill="#000000">
            <g id="if_mastercard_184095" transform="translate(308.000000, 196.000000)">
                <g id="Shape">
                    <polygon fill-rule="nonzero" points="12.615715 13.2633064 9.66107897 13.2633064 11.3486882 3.80108025 7.57928363 13.2633064 5.56787866 13.2633064 5.30919403 3.85211327 3.54063586 13.2633064 0.776053884 13.2633064 3.08309843 0.948510303 7.32411852 0.948510303 7.44378216 8.57530743 10.3139497 0.948510303 14.8981229 0.948510303"></polygon>
                    <path d="M19.8817614,8.80583591 C19.570284,8.77064073 19.4330228,8.76184193 19.2253712,8.76184193 C17.55184,8.76184193 16.7089153,9.27393191 16.7089153,10.2875533 C16.7089153,10.9122679 17.1171794,11.3082137 17.7594916,11.3082137 C18.9649268,11.3082137 19.8324882,10.2875533 19.8817614,8.80583591 Z M22.0304276,13.2633064 C21.6380013,13.2633064 19.5843621,13.2633064 19.5843621,13.2633064 L19.6424341,12.2250484 C18.8927767,13.0433365 17.8967528,13.4357628 16.5487772,13.4357628 C14.9473961,13.4357628 13.8457868,12.3183156 13.8457868,10.699337 C13.8457868,8.25855075 15.7568854,6.84370421 19.0370769,6.84370421 C19.3679117,6.84370421 19.7920137,6.87186036 20.2354731,6.92289338 C20.323461,6.59029886 20.3516172,6.45127787 20.3516172,6.27002265 C20.3516172,5.60659337 19.8377674,5.36198682 18.4545966,5.36198682 C17.0098341,5.34438922 15.8219965,5.66466543 15.3310237,5.81248522 C15.3626993,5.64706783 15.7410476,3.56175298 15.7410476,3.56175298 C17.2122064,3.17988519 18.1835936,3.02854588 19.2746444,3.02854588 C21.8086979,3.02854588 23.1549139,4.04920632 23.1478748,5.96734404 C23.1566736,6.47943402 23.0581271,7.11470715 22.9103073,7.94707334 C22.6533824,9.39711506 22.107857,12.5030904 22.0304276,13.2633064 Z" fill-rule="nonzero"></path>
                    <path d="M61.6267733,1.28462434 L61.1481188,3.95945859 C60.0922631,3.48784308 59.3302873,3.29250979 58.5067199,3.29250979 C56.305261,3.29250979 54.7566727,5.1895304 54.7566727,7.90131959 C54.7566727,9.77194381 55.7966905,10.8981898 57.5142157,10.8981898 C58.2392365,10.8981898 59.0434466,10.699337 60.020113,10.2699557 L59.5062633,13.0750122 C58.4116929,13.3354565 57.7095489,13.4357628 56.8965401,13.4357628 C53.7096159,13.4357628 51.7298866,11.3979615 51.7298866,8.12128952 C51.7298866,3.7254106 54.476871,0.642312172 58.3852965,0.642312172 C59.6716806,0.642312172 61.190353,1.13152528 61.6267733,1.28462434 Z" fill-rule="nonzero"></path>
                    <path d="M66.3939615,8.80583591 C66.0824841,8.77064073 65.9452228,8.76184193 65.7340517,8.76184193 C64.0587608,8.76184193 63.2105568,9.27393191 63.2105568,10.2875533 C63.2105568,10.9122679 63.6241002,11.3082137 64.2734514,11.3082137 C65.4665683,11.3082137 66.3376492,10.2875533 66.3939615,8.80583591 Z M68.5355886,13.2633064 C68.1466818,13.2633064 66.0895231,13.2633064 66.0895231,13.2633064 L66.1440756,12.2250484 C65.3979377,13.0433365 64.4036736,13.4357628 63.0556979,13.4357628 C61.4472779,13.4357628 60.356227,12.3183156 60.356227,10.699337 C60.356227,8.25855075 62.2708452,6.84370421 65.5387184,6.84370421 C65.8730727,6.84370421 66.3006942,6.87186036 66.7406341,6.92289338 C66.8303818,6.59029886 66.8550184,6.45127787 66.8550184,6.27002265 C66.8550184,5.60659337 66.3429284,5.36198682 64.9597576,5.36198682 C63.5237939,5.34438922 62.323638,5.66466543 61.8361847,5.81248522 C61.8696201,5.64706783 62.2479684,3.56175298 62.2479684,3.56175298 C63.7244065,3.17988519 64.6905144,3.02854588 65.7780457,3.02854588 C68.3156187,3.02854588 69.6583151,4.04920632 69.6512761,5.96734404 C69.6653541,6.47943402 69.5632881,7.11470715 69.4207476,7.94707334 C69.1585434,9.39711506 68.613018,12.5030904 68.5355886,13.2633064 Z" fill-rule="nonzero"></path>
                    <path d="M35.1494338,13.1084476 C34.3417042,13.3354565 33.7134701,13.4357628 33.0289237,13.4357628 C31.5190502,13.4357628 30.693723,12.6597089 30.693723,11.2325441 C30.6708461,10.7926042 30.9119332,9.63468258 31.1002274,8.56474888 C31.2779631,7.63383617 32.383092,1.73864226 32.383092,1.73864226 L35.3183707,1.73864226 L34.9734578,3.25379508 L36.4833314,3.25379508 L36.0803465,5.65234711 L34.5669534,5.65234711 C34.2290796,7.56344579 33.736347,9.93208191 33.7328275,10.2400398 C33.7328275,10.7591688 34.0443049,10.9896973 34.7499684,10.9896973 C35.0878422,10.9896973 35.3500463,10.9545021 35.5488991,10.8929105 L35.1494338,13.1084476 Z" fill-rule="nonzero"></path>
                    <path d="M44.1453237,13.0327779 C43.1387413,13.3037809 42.1638346,13.4357628 41.1343754,13.4357628 C37.8524242,13.4322433 36.1366588,11.9030124 36.1366588,8.97125329 C36.1366588,5.55204083 38.3117214,3.02854588 41.2698769,3.02854588 C43.6948253,3.02854588 45.239894,4.44163266 45.239894,6.65189044 C45.239894,7.38746986 45.1325487,8.10193216 44.8773836,9.11555356 L39.0314629,9.11555356 C38.8361296,10.5655953 39.879667,11.1709525 41.5813543,11.1709525 C42.6354501,11.1709525 43.5804409,10.9791387 44.6380563,10.5427184 L44.1453237,13.0327779 Z M42.4964291,7.09007052 C42.5105072,6.88769819 42.804387,5.30567452 41.1308559,5.30567452 C40.1999432,5.30567452 39.5365139,5.94798669 39.2567121,7.09007052 L42.4964291,7.09007052 Z" fill-rule="nonzero"></path>
                    <path d="M23.7989858,6.41608268 C23.7989858,7.68486919 24.4852919,8.55419032 26.0479583,9.21058057 C27.2375556,9.70859247 27.4276096,9.85641226 27.4276096,10.3139497 C27.4276096,10.9386643 26.8996818,11.2219855 25.7294418,11.2219855 C24.8530817,11.2219855 24.0365533,11.1058414 23.0845235,10.8295592 C23.0845235,10.8295592 22.7008959,13.0362974 22.6797788,13.1366037 C23.3520069,13.2668259 23.9538446,13.3882493 25.7540785,13.4357628 C28.8670928,13.4357628 30.313615,12.3763877 30.313615,10.0887005 C30.313615,8.71784794 29.7012187,7.91011839 28.2265404,7.29772213 C26.98591,6.79267119 26.8451293,6.67828683 26.8451293,6.21547011 C26.8451293,5.67170447 27.3378619,5.39366248 28.2934112,5.39366248 C28.8741318,5.39366248 29.6660235,5.44821503 30.4104018,5.55204083 L30.8292245,3.22563893 C30.0672487,3.11829361 28.902288,3.03030564 28.2300599,3.03030564 C24.9322708,3.02854588 23.7919468,4.57185486 23.7989858,6.41608268 Z" fill-rule="nonzero"></path>
                    <path d="M84.1622519,13.2633064 L81.3730333,13.2633064 L81.5120543,12.3288742 C80.6972857,13.0996488 79.8666792,13.4357628 78.7844272,13.4357628 C76.6445598,13.4357628 75.2226742,11.7851085 75.2226742,9.27745143 C75.2226742,5.95326597 77.4276527,3.14293024 80.0250576,3.14293024 C81.1653817,3.14293024 82.0399821,3.56527249 82.8441921,4.51026328 L83.5005823,0.950270063 L86.4077048,0.950270063 L84.1622519,13.2633064 Z M79.8103669,10.9474631 C81.1829792,10.9474631 82.1508469,9.55901292 82.1508469,7.57576411 C82.1508469,6.30345808 81.5982825,5.61363241 80.5864208,5.61363241 C79.2490037,5.61363241 78.2969739,7.00912159 78.2969739,8.97829233 C78.2969739,10.2875533 78.8020248,10.9474631 79.8103669,10.9474631 Z" fill-rule="nonzero"></path>
                    <path d="M71.1963448,3.25555484 C70.8320746,6.35273134 70.1686453,9.49038231 69.6530358,12.5910783 L69.5210539,13.2650662 L72.4721703,13.2650662 C73.5333052,7.1428633 73.7814313,5.95150621 75.4444039,6.09580648 C75.7066081,4.84109804 76.1975809,3.74828747 76.5653706,3.19572303 C75.3265,2.96519455 74.6366744,3.58462985 73.7339178,4.77070767 C73.8060679,4.25861769 73.9362901,3.76764482 73.9116535,3.25907436 L71.1963448,3.25907436 L71.1963448,3.25555484 Z" fill-rule="nonzero"></path>
                    <path d="M46.8958276,3.25555484 C46.5245184,6.35273134 45.8646086,9.49038231 45.3560381,12.5910783 L45.2187769,13.2650662 L48.1786922,13.2650662 C49.2275088,7.1428633 49.4879531,5.95150621 51.1386074,6.09580648 C51.4060909,4.84109804 51.895304,3.74828747 52.2595742,3.19572303 C51.0242231,2.96519455 50.3308779,3.58462985 49.4316408,4.77070767 C49.503791,4.25861769 49.6375327,3.76764482 49.6111363,3.25907436 L46.8958276,3.25907436 L46.8958276,3.25555484 Z" fill-rule="nonzero"></path>
                    <path d="M85.4574348,12.4802135 C85.4574348,12.0473127 85.8551404,11.6900815 86.3390742,11.6900815 C86.8265276,11.6900815 87.2136746,12.0473127 87.2136746,12.4802135 C87.2136746,12.9095948 86.8265276,13.2633064 86.3390742,13.2633064 C85.8533806,13.2633064 85.4574348,12.9095948 85.4574348,12.4802135 Z M86.3390742,13.0750122 C86.7051042,13.0750122 87.006023,12.8075287 87.006023,12.4802135 C87.006023,12.147619 86.7051042,11.8818953 86.3390742,11.8818953 C85.9660052,11.8818953 85.6756449,12.1458592 85.6756449,12.4802135 C85.6756449,12.805769 85.9660052,13.0750122 86.3390742,13.0750122 Z M86.2158911,12.819847 L86.0363956,12.819847 L86.0363956,12.1317811 L86.3601913,12.1317811 C86.435861,12.1317811 86.4992123,12.1353007 86.5625637,12.1669763 C86.6241552,12.2039313 86.6628699,12.2672826 86.6628699,12.3394327 C86.6628699,12.4221414 86.6083174,12.490772 86.5273685,12.5189282 L86.6628699,12.8216068 L86.4745757,12.8216068 L86.3513925,12.5470843 L86.2176508,12.5470843 L86.2176508,12.819847 L86.2158911,12.819847 Z M86.2158911,12.4309402 L86.3161973,12.4309402 C86.3566718,12.4309402 86.391867,12.4379793 86.4235427,12.4203817 C86.4604976,12.3992646 86.4780952,12.3693486 86.4780952,12.337673 C86.4780952,12.3059973 86.4604976,12.28664 86.4341012,12.2655228 C86.3971463,12.2514448 86.3443535,12.2549643 86.3179571,12.2549643 L86.2176508,12.2549643 L86.2176508,12.4309402 L86.2158911,12.4309402 Z" fill-rule="nonzero"></path>
                </g>
            </g>
        </g>
    </g>
</svg>