<?xml version="1.0" encoding="UTF-8"?>
<svg width="50px" height="16px" viewBox="0 0 50 16" version="1.1" xmlns="http://www.w3.org/2000/svg" xmlns:xlink="http://www.w3.org/1999/xlink">
    <!-- Generator: Sketch 51.2 (57519) - http://www.bohemiancoding.com/sketch -->
    <title>if_paypal_184157</title>
    <desc>Created with Sketch.</desc>
    <defs></defs>
    <g id="Page-1" stroke="none" stroke-width="1" fill="none" fill-rule="evenodd">
        <g id="Artboard" transform="translate(-411.000000, -195.000000)" fill="#000000">
            <g id="if_paypal_184157" transform="translate(411.000000, 195.000000)">
                <g id="Shape">
                    <path d="M38.6075184,3.03852513 C37.3743606,3.03852513 36.3982383,3.40979843 35.6516117,3.58115534 L35.4221159,5.71699677 C35.7944092,5.5160604 36.9704479,5.14172716 37.9506502,5.10908775 C38.9267726,5.07338839 39.4989823,5.30798415 39.2990659,6.26166693 C36.3982383,6.26166693 34.4439536,6.94097467 34.0410608,9.07477614 C33.4668112,12.73549 37.0010474,12.6375718 38.404542,11.0433406 L38.2362451,11.9225647 L40.8208784,11.9225647 L41.9408182,6.08929005 C42.4018499,3.61685469 40.4200256,3.00486574 38.6075184,3.03852513 Z M38.7798953,9.00337743 C38.6360779,9.78672328 38.0883478,10.1263771 37.4314796,10.1569766 C36.85417,10.190636 36.3390793,9.6194463 36.7103526,8.94013857 C37.0000274,8.36078903 37.8037729,8.22921141 38.294384,8.22921141 C38.4922605,8.22921141 38.7248163,8.22921141 38.9257526,8.22921141 C38.8676137,8.49746656 38.8400742,8.73410229 38.7798953,9.00337743 Z"></path>
                    <polygon points="44.1490783 0.733366758 42.0152768 11.9215447 44.6427494 11.9215447 46.8051104 0.733366758 44.1490783 0.733366758"></polygon>
                    <path d="M32.0867761,0.766006168 L27.2796029,0.766006168 L25.1478414,11.9225647 L27.940551,11.9225647 L28.660658,8.22921141 L30.6496221,8.22921141 C32.6059467,8.22921141 34.2195576,6.86855598 34.6499898,4.56441758 C35.1426409,1.95326473 33.4708911,0.766006168 32.0867761,0.766006168 Z M32.0000777,4.56441758 C31.8277008,5.41202228 31.0780143,6.08929005 30.3619873,6.08929005 L29.0666107,6.08929005 L29.6418803,3.03852513 L31.0239553,3.03852513 C31.7420223,3.03852513 32.1724546,3.71681289 32.0000777,4.56441758 Z"></path>
                    <path d="M13.4343729,3.03852513 C12.2154949,3.03852513 11.2485524,3.40979843 10.5376252,3.58115534 L10.3132293,5.71699677 C10.6539031,5.5160604 11.8187221,5.14172716 12.7815847,5.10908775 C13.7454673,5.07338839 14.3125771,5.30798415 14.1422401,6.26166693 C11.2760919,6.26166693 9.34628674,6.94097467 8.95359383,9.07477614 C8.38138416,12.73549 11.8758411,12.6375718 13.2344565,11.0433406 L13.0651396,11.9225647 L15.646713,11.9225647 L16.751353,6.08929005 C17.2062648,3.61685469 15.2213807,3.00486574 13.4343729,3.03852513 Z M13.6332693,9.00337743 C13.4884319,9.78672328 12.9223422,10.1263771 12.267514,10.1569766 C11.7055041,10.190636 11.2220329,9.6194463 11.5922862,8.94013857 C11.8758411,8.36078903 12.6663268,8.22921141 13.1222586,8.22921141 C13.3456345,8.22921141 13.5496308,8.22921141 13.7750468,8.22921141 C13.7179278,8.49746656 13.6608088,8.73410229 13.6332693,9.00337743 Z"></path>
                    <polygon points="17.8784327 3.19866224 20.4579661 3.19866224 20.8751386 8.39240846 23.398573 3.19866224 26.0688848 3.19866224 19.9285957 15.6352977 17.0430678 15.6352977 18.9310537 11.9776437 17.8784327 3.19866224"></polygon>
                    <path d="M7.01052892,0.766006168 L2.19621585,0.766006168 L0.0573144706,11.9215447 L2.88674338,11.9215447 L3.57931087,8.22819142 L5.59887441,8.22819142 C7.53173951,8.22819142 9.1494303,6.86753599 9.58292247,4.5633976 C10.0725136,1.95326473 8.42626335,0.766006168 7.01052892,0.766006168 Z M6.92485046,4.56441758 C6.75451354,5.41202228 6.03236658,6.08929005 5.31021962,6.08929005 L3.98424356,6.08929005 L4.58807266,3.03852513 L5.97320765,3.03852513 C6.66577514,3.03852513 7.12986676,3.71681289 6.92485046,4.56441758 Z"></path>
                    <polygon fill-rule="nonzero" points="47.3701801 2.17868066 47.3701801 0.859844474 46.937708 0.859844474 46.937708 0.684407642 47.9791092 0.684407642 47.9791092 0.859844474 47.543577 0.859844474 47.543577 2.17868066"></polygon>
                    <path d="M48.155566,2.17868066 L48.155566,0.684407642 L48.4146413,0.684407642 L48.7236957,1.74212854 C48.7542952,1.84004677 48.7736748,1.91246547 48.7879545,1.95938462 C48.8042743,1.9053256 48.8267138,1.827807 48.8583333,1.72478886 L49.1755476,0.684407642 L49.4070834,0.684407642 L49.4070834,2.17868066 L49.2398064,2.17868066 L49.2398064,0.925123295 L48.8593533,2.17868066 L48.6981962,2.17868066 L48.320803,0.905743645 L48.320803,2.17868066 L48.155566,2.17868066 Z" fill-rule="nonzero"></path>
                </g>
            </g>
        </g>
    </g>
</svg>