<?xml version="1.0" encoding="utf-8"?>
<!-- Generator: Adobe Illustrator 24.2.1, SVG Export Plug-In . SVG Version: 6.00 Build 0)  -->
<svg version="1.1" id="Capa_1" xmlns="http://www.w3.org/2000/svg" xmlns:xlink="http://www.w3.org/1999/xlink" x="0px" y="0px"
	 viewBox="0 0 512 512" style="enable-background:new 0 0 512 512;" xml:space="preserve">
<path d="M314.6,233.9c28.5-19,47.3-51.4,47.3-88.2c0-58.5-47.4-105.9-105.9-105.9S150.1,87.2,150.1,145.7
	c0,36.8,18.8,69.2,47.3,88.2l0,0l0,0c-68.3,20.6-121.4,76-138.5,145.7l0,0c2.8,3.4,5.7,6.6,8.6,9.9c0.7,0.8,1.5,1.5,2.2,2.3
	c2.3,2.4,4.6,4.8,6.9,7.1c1,1,2,1.9,3,2.8c2.2,2.1,4.4,4.1,6.7,6.1c1.1,1,2.3,2,3.4,2.9c2.2,1.9,4.5,3.8,6.7,5.6
	c1.2,1,2.4,1.9,3.6,2.9c2.3,1.8,4.7,3.5,7,5.2c1.2,0.9,2.4,1.8,3.7,2.6c2.5,1.7,5.1,3.4,7.6,5c1.2,0.7,2.3,1.5,3.5,2.2
	c3,1.8,6,3.6,9,5.3c0.8,0.5,1.6,0.9,2.4,1.4c3.9,2.2,7.9,4.2,12,6.2c0.1,0,0.2,0.1,0.3,0.1c3.9,1.9,7.8,3.6,11.8,5.3
	c1.2,0.5,2.5,1,3.7,1.5c2.9,1.1,5.8,2.3,8.7,3.3c1.6,0.6,3.1,1.1,4.7,1.6c2.7,0.9,5.3,1.8,8.1,2.6c1.7,0.5,3.4,1,5.2,1.5
	c2.6,0.7,5.2,1.4,7.9,2.1c1.8,0.4,3.6,0.8,5.4,1.2c2.7,0.6,5.3,1.1,8,1.6c1.8,0.3,3.6,0.7,5.5,1c2.8,0.5,5.6,0.8,8.4,1.2
	c1.8,0.2,3.5,0.5,5.3,0.7c3.1,0.3,6.2,0.6,9.3,0.8c1.5,0.1,3,0.3,4.5,0.3c4.7,0.3,9.3,0.4,14,0.4c4.7,0,9.4-0.2,14-0.4
	c1.5-0.1,3-0.2,4.5-0.3c3.1-0.2,6.2-0.5,9.3-0.8c1.8-0.2,3.5-0.4,5.3-0.7c2.8-0.4,5.6-0.7,8.4-1.2c1.8-0.3,3.6-0.6,5.5-1
	c2.7-0.5,5.4-1,8-1.6c1.8-0.4,3.6-0.8,5.4-1.2c2.6-0.6,5.3-1.3,7.9-2.1c1.7-0.5,3.5-1,5.2-1.5c2.7-0.8,5.4-1.7,8.1-2.6
	c1.6-0.5,3.1-1,4.7-1.6c2.9-1.1,5.8-2.2,8.7-3.3c1.2-0.5,2.5-1,3.7-1.5c4-1.7,7.9-3.4,11.7-5.3c0.1-0.1,0.2-0.1,0.4-0.2
	c4.1-2,8.1-4,12-6.2c0.8-0.4,1.6-0.9,2.4-1.4c3-1.7,6.1-3.5,9-5.3c1.2-0.7,2.3-1.5,3.5-2.2c2.6-1.6,5.1-3.3,7.6-5
	c1.2-0.9,2.5-1.7,3.7-2.6c2.4-1.7,4.7-3.4,7-5.2c1.2-0.9,2.4-1.9,3.6-2.9c2.3-1.8,4.5-3.7,6.7-5.6c1.1-1,2.3-2,3.4-2.9
	c2.3-2,4.5-4.1,6.7-6.1c1-0.9,2-1.9,3-2.8c2.4-2.3,4.7-4.7,6.9-7.1c0.7-0.8,1.5-1.5,2.2-2.3c3-3.2,5.9-6.5,8.6-9.9l0,0
	C436,309.9,382.9,254.5,314.6,233.9z"/>
</svg>
