<?xml version="1.0"?>
<svg width="233" height="94" xmlns="http://www.w3.org/2000/svg">

 <g>
  <title>background</title>
  <rect fill="none" id="canvas_background" height="96" width="235" y="-1" x="-1"/>
 </g>
 <g>
  <title>Layer 1</title>
  <path stroke="null" id="svg_1" fill="#000000" d="m135.607254,27.848093c0,13.790777 -9.663597,23.632536 -23.17173,23.632536l-12.721817,0a1.060932,1.060932 0 0 0 -0.755501,0.313457a1.06897,1.06897 0 0 0 -0.313461,0.75552l0,18.124252a1.071649,1.071649 0 0 1 -1.068977,1.068985l-8.906723,0a1.06897,1.06897 0 0 1 -1.067642,-1.068985l0,-65.387989a1.06897,1.06897 0 0 1 1.067642,-1.068969l23.825424,0c13.449188,-0.014731 23.112785,9.827019 23.112785,23.631192zm-11.103622,0c0,-7.926182 -5.403793,-13.715761 -12.736549,-13.715761l-12.053375,0a1.066291,1.066291 0 0 0 -1.068962,1.068973l0,25.234643a1.066291,1.066291 0 0 0 1.068962,1.06897l12.053375,0c7.332756,0.045559 12.736549,-5.744034 12.736549,-13.656824zm13.745239,31.352427a12.715112,12.715112 0 0 1 5.314041,-10.895985c3.474823,-2.612148 8.906738,-3.963764 16.878464,-4.246407l8.49147,-0.29604l0,-2.508995c0,-5.018005 -3.370346,-7.13987 -8.774109,-7.13987c-5.402466,0 -8.831726,1.915573 -9.618057,5.047462a1.03682,1.03682 0 0 1 -1.02478,0.742115l-8.386978,0a1.056914,1.056914 0 0 1 -1.06897,-1.218987c1.247116,-7.421173 7.422501,-13.06073 20.485916,-13.06073c13.893906,0 18.910553,6.470081 18.910553,18.820827l0,26.229946a1.081026,1.081026 0 0 1 -1.083679,1.068985l-8.460663,0a1.060932,1.060932 0 0 1 -0.755539,-0.312126a1.06897,1.06897 0 0 1 -0.313431,-0.756859l0,-1.958435a0.799718,0.799718 0 0 0 -1.381088,-0.56395c-2.537125,2.759491 -6.634857,4.750092 -13.196014,4.750092c-9.648865,0 -16.017136,-5.018013 -16.017136,-13.701046zm30.683975,-5.686436l0,-2.033455l-11.000458,0.578697c-5.789597,0.297382 -9.158585,2.701897 -9.158585,6.75407c0,3.666378 3.087692,5.70116 8.491486,5.70116c7.332748,0 11.667557,-3.965099 11.667557,-11.000473zm19.015076,38.046219l0,-7.600677a1.074328,1.074328 0 0 1 1.291351,-1.054222a21.526747,21.526747 0 0 0 3.934296,0.37104a10.151194,10.151194 0 0 0 10.227524,-7.243004l0.549225,-1.752136a1.12791,1.12791 0 0 0 0,-0.727386l-17.62059,-45.245012a1.071649,1.071649 0 0 1 -0.069641,-0.51841a1.078347,1.078347 0 0 1 1.079681,-0.964478l8.534332,0a1.085045,1.085045 0 0 1 1.01004,0.696566l11.964935,31.915039a1.075668,1.075668 0 0 0 1.023453,0.728725a1.086384,1.086384 0 0 0 1.02475,-0.728725l10.390961,-31.826628a1.085045,1.085045 0 0 1 1.038177,-0.742115l8.833038,0a1.09844,1.09844 0 0 1 1.02478,1.484238l-18.852966,50.246927c-4.334824,11.683647 -11.770737,14.666855 -19.964813,14.666855a15.979623,15.979623 0 0 1 -4.602753,-0.549217a1.090403,1.090403 0 0 1 -0.618851,-0.43a1.090403,1.090403 0 0 1 -0.19693,-0.727379zm-157.571222,-91.114265a43.879997,43.879997 0 0 0 -30.252646,11.801527a1.915572,1.915572 0 0 0 -0.237102,2.567945l5.076935,6.932227a1.946382,1.946382 0 0 0 2.968467,0.237103a31.381895,31.381895 0 0 1 22.488553,-9.189392c17.412952,0 26.51125,13.10895 26.51125,26.053131c0,14.072079 -9.559109,23.972775 -23.289608,24.165668c-10.61334,0 -18.614539,-7.035374 -18.614539,-16.329243a15.8671,15.8671 0 0 1 5.863263,-12.244934a1.915572,1.915572 0 0 0 0.267906,-2.672417l-5.344844,-6.739332a1.943703,1.943703 0 0 0 -2.775574,-0.281305a28.204456,28.204456 0 0 0 -10.510194,21.939335c0,16.001053 13.596545,28.546032 31.01084,28.649181l0.23576,0c20.678806,-0.267914 35.626965,-15.587135 35.626965,-36.51643c0,-18.585072 -13.686291,-38.373065 -39.025431,-38.373065z"/>
 </g>
</svg>