<?xml version="1.0" encoding="UTF-8"?>
<svg width="40px" height="13px" viewBox="0 0 40 13" version="1.1" xmlns="http://www.w3.org/2000/svg" xmlns:xlink="http://www.w3.org/1999/xlink">
    <!-- Generator: Sketch 51.2 (57519) - http://www.bohemiancoding.com/sketch -->
    <title>if_visa_184329</title>
    <desc>Created with Sketch.</desc>
    <defs></defs>
    <g id="Page-1" stroke="none" stroke-width="1" fill="none" fill-rule="evenodd">
        <g id="Artboard" transform="translate(-247.000000, -196.000000)" fill="#000000">
            <g id="if_visa_184329" transform="translate(247.000000, 196.000000)">
                <g id="Shape">
                    <polygon points="13 13 14.9231946 1 18 1 16.0729804 13"></polygon>
                    <path d="M29,0.521477941 C28.3377098,0.280472838 27.2940003,0 26.0117999,0 C22.7069968,0 20.4010304,1.7038305 20.3810869,4.15250953 C20.3619744,5.96130741 22.032242,6.97235321 23.2953299,7.57864479 C24.5983048,8.1983722 25.0370617,8.58717137 25.0204421,9.14139913 C25.0204421,9.99625347 23.9916902,10.3766553 23.0302476,10.3766553 C21.6973575,10.3766553 20.9901944,10.1818358 19.8949643,9.71578063 L19.4545455,9.50752535 L19,12.3189716 C19.7719794,12.6892966 21.2095729,12.9815257 22.7078278,13 C26.2120658,13 28.4773143,11.3104451 28.5072295,8.68794006 C28.528004,7.26710161 27.6322087,6.16956269 25.7076616,5.26936244 C24.550108,4.69414121 23.841283,4.31709838 23.841283,3.72088366 C23.841283,3.17925199 24.4420808,2.62418448 25.7483796,2.62418448 C26.8402859,2.60403075 27.6330397,2.85175376 28.2429782,3.11123312 L28.5462855,3.25146954 L29,0.521477941 Z"></path>
                    <path d="M37.3084034,1 L34.7210676,1 C33.9245152,1 33.3131299,1.2174985 32.9553069,1.99153728 L28,13 L31.5039967,13 C31.5039967,13 32.0778481,11.5054974 32.2146382,11.1912441 C32.6058247,11.1912441 36.0072287,11.1912441 36.4960033,11.1912441 C36.598596,11.6054508 36.9047056,13 36.9047056,13 L40,13 L37.3084034,1 Z M33.1755057,8.72519491 C33.449086,8.05190911 34.5175506,5.38675285 34.5175506,5.38675285 C34.483353,5.4211368 34.7911309,4.69027787 34.9587822,4.24328647 L35.1723083,5.26760845 C35.1723083,5.26760845 35.8170571,8.13187179 35.9546813,8.72519491 L33.1755057,8.72519491 Z"></path>
                    <path d="M10.3903959,1 L7.04341667,9.19062875 L6.70004958,7.5278334 C5.89432679,5.55186223 4.28968057,3.81617942 2,2.59150981 L5.02910971,13 L8.63531412,13 L14,1 L10.3903959,1 Z"></path>
                    <path d="M5.34920961,0 L0.0303839047,0 L0,0.285172498 C4.11742969,1.34878884 6.86347773,3.91362858 8,7 L6.83391501,1.10472229 C6.63518785,0.285172498 6.06610552,0.0419623195 5.34920961,0 Z"></path>
                </g>
            </g>
        </g>
    </g>
</svg>