<?xml version="1.0" encoding="utf-8"?>
<!-- Generator: Adobe Illustrator 24.2.1, SVG Export Plug-In . SVG Version: 6.00 Build 0)  -->
<svg version="1.1" id="Capa_1" xmlns="http://www.w3.org/2000/svg" xmlns:xlink="http://www.w3.org/1999/xlink" x="0px" y="0px"
	 viewBox="0 0 512 512" style="enable-background:new 0 0 512 512;" xml:space="preserve">
<style type="text/css">
	.st0{fill:#F9EDE0;}
</style>
<g>
	<path class="st0" d="M337.5,498.7c-2.7,0.9-5.3,1.8-8.1,2.6C332.2,500.4,334.8,499.6,337.5,498.7z"/>
	<path class="st0" d="M350.9,493.8c-2.9,1.1-5.8,2.3-8.7,3.3C345.1,496,348,494.9,350.9,493.8z"/>
</g>
<g>
	<path class="st0" d="M324.3,502.7c-2.6,0.7-5.2,1.4-7.9,2.1C319.1,504.1,321.7,503.4,324.3,502.7z"/>
	<path class="st0" d="M237.5,511.3c-3.1-0.2-6.2-0.5-9.3-0.8C231.2,510.8,234.3,511,237.5,511.3z"/>
	<path class="st0" d="M195.6,504.8c-2.6-0.6-5.3-1.3-7.9-2.1C190.3,503.4,192.9,504.1,195.6,504.8z"/>
	<path class="st0" d="M222.8,509.8c-2.8-0.4-5.6-0.7-8.4-1.2C217.2,509.1,220,509.4,222.8,509.8z"/>
	<path class="st0" d="M256,512c-4.7,0-9.4-0.2-14-0.4C246.6,511.8,251.3,512,256,512z"/>
	<path class="st0" d="M209,507.6c-2.7-0.5-5.4-1-8-1.6C203.7,506.6,206.3,507.1,209,507.6z"/>
	<path class="st0" d="M157.4,492.3c-4-1.7-7.9-3.4-11.8-5.3C149.5,488.9,153.4,490.6,157.4,492.3z"/>
	<path class="st0" d="M169.8,497.1c-2.9-1.1-5.8-2.2-8.7-3.3C164,494.9,166.9,496,169.8,497.1z"/>
	<path class="st0" d="M270,511.6c-4.7,0.2-9.3,0.4-14,0.4C260.7,512,265.4,511.8,270,511.6z"/>
	<path class="st0" d="M283.9,510.5c-3.1,0.3-6.2,0.6-9.3,0.8C277.7,511,280.8,510.8,283.9,510.5z"/>
	<path class="st0" d="M311,506c-2.7,0.6-5.3,1.1-8,1.6C305.7,507.1,308.3,506.6,311,506z"/>
	<path class="st0" d="M297.5,508.6c-2.8,0.5-5.6,0.8-8.4,1.2C292,509.4,294.8,509.1,297.5,508.6z"/>
	<path class="st0" d="M366.4,487c-3.9,1.8-7.8,3.6-11.7,5.3C358.6,490.6,362.5,488.9,366.4,487z"/>
	<path class="st0" d="M182.5,501.2c-2.7-0.8-5.4-1.7-8.1-2.6C177.2,499.6,179.8,500.4,182.5,501.2z"/>
	<path class="st0" d="M354.6,492.3c-1.2,0.5-2.5,1-3.7,1.5C352.1,493.3,353.4,492.8,354.6,492.3z"/>
	<path class="st0" d="M366.7,486.9c-0.1,0.1-0.2,0.1-0.4,0.2C366.5,487,366.6,486.9,366.7,486.9z"/>
	<path class="st0" d="M201,506c-1.8-0.4-3.6-0.8-5.4-1.2C197.4,505.2,199.2,505.6,201,506z"/>
	<path class="st0" d="M214.5,508.6c-1.8-0.3-3.6-0.6-5.5-1C210.8,508,212.6,508.3,214.5,508.6z"/>
	<path class="st0" d="M242,511.6c-1.5-0.1-3-0.2-4.5-0.3C239,511.4,240.5,511.5,242,511.6z"/>
	<path class="st0" d="M228.1,510.5c-1.8-0.2-3.5-0.4-5.3-0.7C224.6,510,226.4,510.3,228.1,510.5z"/>
	<path class="st0" d="M145.6,487c-0.1,0-0.2-0.1-0.3-0.1C145.4,486.9,145.5,487,145.6,487z"/>
	<path class="st0" d="M274.5,511.3c-1.5,0.1-3,0.3-4.5,0.3C271.5,511.5,273,511.4,274.5,511.3z"/>
	<path class="st0" d="M329.5,501.2c-1.7,0.5-3.4,1-5.2,1.5C326,502.2,327.7,501.8,329.5,501.2z"/>
	<path class="st0" d="M342.2,497.1c-1.6,0.6-3.1,1.1-4.7,1.6C339.1,498.1,340.7,497.6,342.2,497.1z"/>
	<path class="st0" d="M161.1,493.8c-1.2-0.5-2.5-1-3.7-1.5C158.6,492.8,159.9,493.3,161.1,493.8z"/>
	<path class="st0" d="M174.5,498.7c-1.6-0.5-3.1-1-4.7-1.6C171.3,497.6,172.9,498.1,174.5,498.7z"/>
	<path class="st0" d="M289.2,509.8c-1.8,0.2-3.5,0.5-5.3,0.7C285.6,510.3,287.4,510,289.2,509.8z"/>
	<path class="st0" d="M316.4,504.8c-1.8,0.4-3.6,0.8-5.4,1.2C312.8,505.6,314.6,505.2,316.4,504.8z"/>
	<path class="st0" d="M303,507.6c-1.8,0.3-3.6,0.7-5.5,1C299.4,508.3,301.2,508,303,507.6z"/>
	<path class="st0" d="M187.7,502.7c-1.7-0.5-3.5-1-5.2-1.5C184.2,501.8,186,502.2,187.7,502.7z"/>
</g>
<g id="XMLID_469_">
	<path id="XMLID_487_" d="M383.1,165.8v-55.1C383.1,49.7,326.1,0,256,0S128.9,49.7,128.9,110.7v55.1H62.9v301.9
		c0,24.4,22.8,44.3,50.9,44.3h284.5c28,0,50.9-19.9,50.9-44.3V165.8L383.1,165.8z M163.5,110.7c0-44.4,41.5-80.6,92.5-80.6
		s92.5,36.1,92.5,80.6v55.1h-185V110.7z M414.5,467.7c0,7.8-7.3,14.2-16.3,14.2H113.7c-9,0-16.3-6.4-16.3-14.2V196h317.1V467.7z"/>
</g>
</svg>
